<svg width="16" height="9" viewBox="0 0 16 9" fill="none" xmlns="http://www.w3.org/2000/svg">
<path d="M8.50667 8.50702C8.11614 8.89755 7.48298 8.89755 7.09245 8.50702L0.728493 2.14306C0.337969 1.75254 0.337969 1.11937 0.728493 0.728847C1.11902 0.338323 1.75218 0.338323 2.14271 0.728847L7.79956 6.3857L13.4564 0.728847C13.8469 0.338323 14.4801 0.338323 14.8706 0.728847C15.2612 1.11937 15.2612 1.75254 14.8706 2.14306L8.50667 8.50702ZM8.79956 6.59991V6.65991L6.79956 6.65991V6.59991H8.79956ZM8.79956 6.89991V7.25991H6.79956V6.89991L8.79956 6.89991ZM8.79956 7.73991V7.79991H6.79956V7.73991H8.79956Z" fill="#404040"/>
</svg>
