<?xml version="1.0" standalone="no"?>

<svg version="1.0" xmlns="http://www.w3.org/2000/svg"
 width="92" height="92" viewBox="0 0 512.000000 512.000000"
 preserveAspectRatio="xMidYMid meet">
<metadata>
Created by potrace 1.16, written by Peter Selinger 2001-2019
</metadata>
<g transform="translate(0.000000,512.000000) scale(0.100000,-0.100000)"
fill="#000000" stroke="none">
<path d="M2991 4014 c-37 -20 -63 -57 -169 -245 l-71 -126 -65 1 c-59 1 -67
-2 -96 -29 -18 -16 -56 -77 -86 -135 -30 -58 -65 -125 -79 -150 -14 -25 -25
-55 -25 -67 0 -24 -31 -82 -68 -128 -14 -16 -35 -53 -48 -80 -12 -28 -30 -57
-39 -65 -10 -8 -44 -49 -76 -92 -33 -42 -79 -91 -104 -109 -25 -18 -53 -45
-63 -61 -10 -15 -46 -51 -80 -80 -34 -29 -88 -75 -120 -103 -33 -27 -74 -74
-93 -103 -18 -29 -59 -73 -91 -98 -59 -46 -83 -77 -74 -93 13 -21 -149 -140
-304 -224 -47 -25 -147 -70 -222 -100 -76 -30 -149 -64 -164 -76 -15 -12 -32
-21 -38 -21 -24 0 -95 -62 -124 -108 -17 -26 -35 -65 -41 -87 -25 -98 -41
-145 -56 -169 -13 -20 -16 -37 -11 -69 13 -82 38 -149 68 -183 31 -36 132 -88
228 -120 l55 -18 -70 -12 c-135 -23 -182 -41 -172 -67 28 -73 706 -93 1412
-42 557 41 810 72 1215 148 177 34 370 61 750 107 274 33 376 62 421 119 20
24 21 34 14 121 -4 52 -8 120 -10 150 -1 30 -10 83 -19 117 -10 38 -14 78 -10
101 7 47 -24 169 -67 259 -25 53 -28 69 -23 115 8 67 -10 160 -42 215 -14 25
-24 58 -24 82 0 56 -26 238 -61 421 -16 85 -29 185 -29 222 0 174 -40 374 -90
456 -13 21 -38 41 -67 54 -40 18 -61 20 -157 16 -127 -5 -174 -22 -251 -90
-42 -37 -45 -38 -35 -13 5 14 10 52 10 83 0 114 -89 208 -285 302 -170 81
-290 106 -354 74z m146 -28 c29 -8 84 -26 123 -42 56 -22 68 -30 59 -41 -9
-10 -6 -12 17 -8 65 13 243 -126 264 -206 14 -49 0 -139 -24 -158 -21 -18 -49
-2 -41 23 4 11 10 42 12 67 5 51 -17 108 -59 146 -30 28 -198 133 -212 133 -8
0 -7 -3 1 -8 7 -4 0 -16 -22 -32 -29 -22 -49 -47 -108 -132 -11 -16 -17 -15
-85 8 -44 15 -100 26 -142 27 l-69 2 31 55 c103 184 127 200 255 166z m240
-153 c81 -51 106 -72 137 -118 34 -50 35 -132 1 -173 -2 -2 -31 9 -66 24 -43
17 -90 28 -142 31 -66 5 -79 9 -89 27 -6 11 -21 33 -35 47 l-25 27 22 42 c24
47 102 130 123 130 7 0 41 -17 74 -37z m-315 -122 c62 -20 128 -61 128 -81 0
-4 -11 -11 -24 -14 -14 -3 -38 -18 -55 -32 l-31 -26 -53 25 c-55 25 -118 41
-199 52 -48 6 -48 6 -33 31 52 85 39 77 124 71 42 -3 106 -15 143 -26z m953
-124 c-7 -18 -19 -71 -25 -117 -20 -149 -47 -210 -93 -210 l-21 0 22 16 c35
25 51 66 62 166 14 129 19 146 43 163 28 20 28 20 12 -18z m-1445 -109 c-66
-128 -114 -198 -127 -185 -3 4 10 33 29 64 19 32 48 88 65 124 31 65 77 129
93 129 4 0 -23 -60 -60 -132z m261 122 c50 -9 199 -78 226 -104 9 -8 5 -19
-19 -45 -29 -33 -32 -34 -62 -21 -142 60 -241 81 -288 62 -9 -4 -36 -33 -58
-65 -23 -32 -44 -56 -47 -54 -4 5 92 202 109 225 13 15 66 16 139 2z m369 -7
c0 -5 -18 -18 -40 -30 -48 -28 -65 -12 -18 17 34 20 58 26 58 13z m183 -44
c78 -26 203 -92 240 -127 22 -21 27 -34 27 -71 -1 -88 -40 -199 -94 -266 -24
-30 -25 -30 -108 -27 -108 4 -119 -5 -148 -113 -11 -44 -32 -96 -45 -117 -28
-41 -75 -62 -232 -102 -203 -52 -223 -62 -344 -178 -45 -42 -95 -77 -153 -106
-66 -33 -93 -53 -115 -85 -42 -61 -56 -72 -188 -136 -200 -98 -239 -104 -373
-50 -30 12 -102 37 -160 55 -57 17 -106 36 -107 41 -2 6 13 23 34 38 21 15 56
44 77 64 26 24 37 30 32 17 -5 -16 -4 -17 9 -6 34 28 209 -20 370 -102 39 -20
42 -20 73 -4 37 19 40 49 5 54 -12 2 -27 10 -33 17 -10 12 -1 27 45 80 32 36
60 65 63 65 4 0 16 -12 28 -27 23 -29 34 -28 88 12 17 13 17 15 -8 42 -32 34
-32 34 -1 63 20 19 27 21 39 10 22 -18 86 23 86 55 0 21 59 85 78 85 5 0 21
-14 38 -31 25 -26 34 -29 64 -24 31 5 70 35 70 54 0 4 -14 8 -32 9 -35 3 -58
18 -58 37 0 18 67 74 114 96 23 10 35 19 28 19 -7 0 -26 -7 -42 -15 -27 -14
-30 -14 -30 -1 0 30 54 46 152 46 107 0 115 5 125 90 5 47 6 48 29 38 19 -9
32 -7 64 8 22 10 40 22 40 27 0 10 -18 9 -25 -2 -3 -6 -28 4 -55 21 -63 39
-64 60 -11 166 76 152 160 231 255 243 l51 6 -43 2 c-96 3 -207 -98 -292 -266
-46 -93 -49 -126 -14 -157 l29 -26 -45 19 -45 18 1 60 c0 45 8 74 33 123 41
83 119 181 179 225 80 59 136 67 235 34z m771 -82 c22 -79 34 -154 42 -266 5
-80 4 -101 -6 -101 -23 0 -81 51 -111 98 -27 42 -27 46 -11 59 9 8 11 12 5 8
-17 -8 -17 -13 9 153 22 138 23 143 40 122 9 -11 23 -44 32 -73z m-1068 58
c18 -13 18 -14 -4 -8 -12 3 -25 9 -28 14 -8 14 10 11 32 -6z m-304 -56 c29 -6
81 -23 116 -36 52 -21 63 -29 60 -47 -4 -26 -35 -26 -122 -1 -38 10 -84 15
-127 13 l-68 -3 15 25 c18 28 52 60 65 60 4 0 32 -5 61 -11z m991 -156 c126
-105 189 -129 257 -99 11 4 21 -3 33 -23 9 -16 40 -52 68 -79 59 -57 59 -72 3
-121 -38 -34 -37 -40 2 -15 21 14 24 14 19 1 -7 -17 -97 -57 -129 -57 -44 0
-130 54 -211 134 -83 82 -129 147 -140 201 -6 29 -6 29 9 11 17 -22 21 -15 7
12 -9 19 -21 112 -14 112 3 0 46 -34 96 -77z m-937 47 c43 -11 82 -24 86 -28
5 -5 2 -17 -6 -27 -13 -18 -15 -18 -66 4 -28 12 -54 21 -56 18 -2 -2 21 -14
51 -26 l54 -22 -16 -34 -16 -34 -51 21 c-72 30 -175 57 -219 57 l-38 1 32 40
c17 21 39 41 48 43 40 11 124 5 197 -13z m92 -102 c-25 -62 -38 -80 -38 -53 0
17 46 105 55 105 2 0 -6 -24 -17 -52z m-431 16 c-3 -3 -12 -4 -19 -1 -8 3 -5
6 6 6 11 1 17 -2 13 -5z m182 -25 c25 -5 84 -28 133 -51 82 -38 88 -43 88 -71
0 -28 -1 -29 -36 -24 -19 3 -81 24 -137 46 -138 53 -218 67 -276 47 -53 -19
-51 -19 -51 -3 0 19 32 46 66 57 40 12 160 11 213 -1z m1026 -87 c44 -70 174
-195 236 -225 63 -32 106 -34 159 -7 22 11 40 18 40 15 0 -14 -68 -138 -116
-212 -29 -46 -52 -83 -49 -83 8 0 104 147 146 223 22 39 37 61 33 47 -12 -43
-201 -370 -232 -402 -4 -4 -25 -14 -47 -24 l-40 -16 48 44 c81 77 64 118 -130
309 -125 123 -188 213 -162 230 8 5 11 9 7 9 -3 0 9 26 28 57 19 31 34 63 34
70 0 25 15 13 45 -35z m-1305 -21 c-10 -21 -30 -37 -30 -26 0 14 21 45 31 45
6 0 6 -7 -1 -19z m323 -68 l98 -16 -38 -38 -38 -39 -90 25 c-136 38 -201 47
-277 37 -71 -9 -87 0 -52 29 38 31 214 32 397 2z m182 -52 c33 -48 28 -73 -12
-66 -15 2 -45 7 -65 10 l-38 6 38 48 c20 27 40 47 43 45 3 -2 18 -21 34 -43z
m-510 -12 c-4 -5 -30 -20 -59 -33 -28 -13 -72 -45 -98 -72 -57 -59 -75 -52
-24 11 63 76 94 94 174 104 7 0 10 -4 7 -10z m1190 -31 c15 -24 84 -98 153
-164 l126 -121 -89 -66 c-92 -68 -277 -171 -296 -165 -6 2 -20 30 -30 62 -31
92 -105 186 -145 186 -20 0 -70 -73 -95 -139 -53 -143 -47 -254 17 -311 22
-19 30 -32 22 -34 -7 -3 -36 -12 -64 -20 -30 -10 -75 -37 -110 -66 -198 -166
-261 -211 -296 -210 -7 1 -38 39 -68 87 -37 58 -76 103 -120 140 -138 114
-150 125 -150 136 0 30 50 81 114 114 41 22 107 73 163 125 108 99 136 113
333 159 69 16 144 38 167 49 56 26 92 82 118 184 l20 81 90 6 c50 3 95 6 101
7 6 1 24 -17 39 -40z m-995 12 c44 -22 90 -83 90 -117 0 -34 -17 -28 -44 15
-29 46 -48 63 -106 96 l-45 26 33 0 c18 0 50 -9 72 -20z m118 -48 c6 -20 -22
-13 -35 8 -12 17 -11 18 9 11 12 -4 24 -13 26 -19z m1518 -59 c48 -224 71
-446 52 -488 -10 -22 -64 -65 -81 -65 -3 0 4 28 15 63 31 98 35 247 9 396 -21
125 -26 179 -15 168 3 -3 13 -37 20 -74z m-1736 10 c62 -42 180 -162 180 -183
0 -25 -41 -5 -90 45 -80 81 -124 104 -227 117 -97 12 -98 12 -88 27 4 7 45 11
103 11 75 0 103 -4 122 -17z m1713 -268 c0 -111 -4 -141 -24 -204 l-25 -75
-109 -64 c-61 -35 -114 -68 -120 -74 -7 -8 -6 -9 3 -4 6 4 12 5 12 2 0 -3 -10
-10 -21 -17 -17 -9 -20 -8 -14 3 3 7 1 6 -7 -3 -7 -9 -44 -35 -83 -59 -38 -23
-82 -51 -97 -62 -16 -10 -28 -16 -28 -13 0 3 60 104 134 223 73 119 157 264
186 322 29 58 77 150 108 205 l57 99 13 -74 c8 -41 14 -133 15 -205z m-1628
248 c19 -9 35 -23 35 -31 0 -10 -4 -11 -12 -5 -7 5 -26 19 -42 31 -34 26 -29
28 19 5z m-395 -53 c-6 -11 -17 -20 -26 -20 -12 0 -12 4 -4 20 6 11 17 20 26
20 12 0 12 -4 4 -20z m464 5 c-6 -16 -24 -21 -24 -7 0 11 11 22 21 22 5 0 6
-7 3 -15z m-243 -103 c38 -37 69 -72 69 -77 0 -6 -10 -16 -22 -24 -18 -11 -22
-11 -31 5 -16 28 -58 64 -102 87 -33 18 -57 22 -135 22 -85 0 -99 -3 -125 -23
-17 -13 -30 -31 -30 -40 0 -9 -14 -24 -32 -32 -17 -8 -54 -38 -82 -67 -65 -66
-117 -106 -132 -101 -11 4 93 101 194 182 26 21 47 44 47 50 0 17 49 63 80 75
14 5 71 10 128 10 l103 1 70 -68z m72 51 l29 -5 -23 -24 c-21 -22 -23 -23 -49
-8 -14 9 -37 25 -51 36 l-24 19 45 -6 c25 -3 58 -9 73 -12z m880 -122 c43 -48
65 -88 87 -161 13 -44 20 -54 36 -52 42 6 205 96 293 162 52 39 100 69 106 66
7 -2 17 -18 23 -35 10 -27 8 -35 -14 -60 -67 -80 -468 -300 -565 -309 -45 -4
-51 -2 -82 29 -43 43 -52 95 -33 188 19 91 80 211 106 211 4 0 24 -18 43 -39z
m-1040 -18 c4 -3 3 -11 -3 -18 -9 -11 -17 -10 -46 7 -19 11 -34 22 -34 24 0 5
71 -6 83 -13z m-75 -17 c18 -13 49 -45 69 -71 29 -36 35 -50 27 -63 -16 -25
-29 -24 -44 3 -8 15 -36 43 -64 63 -48 35 -52 36 -160 42 -103 5 -109 6 -86
19 34 20 82 28 161 30 54 1 71 -3 97 -23z m-128 -136 c18 -16 37 -27 41 -24
16 9 9 -13 -10 -37 l-18 -23 -59 26 c-33 14 -72 29 -87 32 -25 6 -27 9 -16 23
35 42 104 43 149 3z m2107 8 c-3 -8 -6 -5 -6 6 -1 11 2 17 5 13 3 -3 4 -12 1
-19z m-2072 1 c11 -17 0 -20 -21 -4 -17 13 -17 14 -2 15 9 0 20 -5 23 -11z
m2062 -41 c-3 -8 -6 -5 -6 6 -1 11 2 17 5 13 3 -3 4 -12 1 -19z m-2245 -24
c74 -27 138 -65 172 -103 19 -21 19 -21 -3 -21 -12 0 -45 13 -74 29 -70 40
-225 91 -276 91 -45 0 -54 15 -18 30 33 15 116 3 199 -26z m1910 -31 c-27 -38
-92 -138 -145 -224 -53 -86 -103 -161 -109 -167 -7 -5 -92 -55 -188 -112 -192
-111 -228 -140 -268 -215 -23 -42 -38 -56 -97 -87 -109 -58 -269 -123 -395
-161 -184 -55 -163 -57 -204 18 -20 35 -43 68 -52 73 -12 7 -2 17 43 45 54 32
165 112 373 265 99 74 270 214 295 242 11 13 -24 -14 -78 -59 -123 -102 -493
-378 -586 -436 -42 -26 -53 -28 -165 -30 -133 -2 -632 -41 -711 -55 -77 -14
286 -3 515 16 245 20 273 17 315 -29 18 -20 30 -39 26 -43 -3 -4 -1 -4 6 0 7
4 18 -5 28 -23 l15 -30 -37 -10 c-153 -40 -499 -87 -718 -97 -206 -9 -526 17
-605 49 -14 5 -31 11 -38 13 -27 5 -52 38 -73 93 -11 31 -30 66 -42 79 -23 25
-102 52 -223 77 -43 9 -80 17 -81 19 -11 11 36 104 71 140 50 51 95 63 170 46
185 -41 434 -32 941 35 99 13 230 27 290 30 144 9 169 17 181 58 14 46 2 90
-43 155 -22 31 -43 62 -47 69 -4 8 13 23 51 42 32 17 55 30 51 31 -12 0 -118
-54 -118 -60 0 -4 23 -44 50 -90 48 -80 59 -120 42 -148 -6 -8 -9 -3 -9 16 0
32 -37 111 -84 174 -16 23 -29 45 -29 49 0 5 42 30 93 55 50 25 99 52 108 60
14 13 22 7 66 -44 28 -32 84 -107 124 -167 96 -142 126 -172 183 -180 28 -4
52 -2 67 5 47 25 165 116 237 183 77 73 118 94 273 146 52 17 165 66 250 108
146 72 305 142 322 143 4 0 -15 -30 -41 -67z m313 -22 c-9 -27 -21 -54 -28
-59 -7 -5 -57 -30 -112 -56 -116 -53 -104 -40 25 29 86 45 91 50 107 96 23 63
30 55 8 -10z m154 -40 c6 -19 11 -64 11 -101 0 -53 -5 -74 -22 -100 -27 -39
-122 -94 -193 -111 -153 -36 -554 -184 -803 -298 l-133 -60 18 31 c21 36 81
77 263 183 74 43 200 119 280 170 80 51 227 134 327 184 115 58 190 102 205
120 26 32 30 30 47 -18z m-2614 -150 c44 -15 113 -40 152 -54 81 -30 155 -35
208 -13 l34 14 39 -51 c21 -29 47 -68 57 -87 l18 -35 -21 19 c-17 15 -23 16
-26 5 -2 -8 -10 -30 -16 -51 -11 -35 -12 -36 -73 -43 -34 -3 -129 -15 -212
-26 -480 -65 -724 -80 -885 -55 -57 9 -108 20 -112 24 -8 8 116 70 172 87 14
4 73 31 132 61 60 29 114 52 120 50 7 -1 9 -1 5 2 -5 2 40 37 100 77 59 40
117 82 128 95 24 27 60 23 180 -19z m909 -113 c64 -70 115 -158 92 -158 -23 0
-74 56 -144 159 -59 87 -61 91 -31 74 17 -10 55 -44 83 -75z m-409 -12 c44
-64 58 -94 59 -123 1 -32 -2 -38 -21 -41 -26 -4 -28 1 -12 27 18 27 5 61 -55
145 -32 44 -49 76 -41 76 7 0 39 -38 70 -84z m2101 -14 c-16 -31 -77 -67 -134
-78 -54 -11 -37 13 36 50 37 19 76 41 87 49 27 20 30 15 11 -21z m92 -101 c13
-110 -52 -149 -383 -229 -212 -52 -228 -51 -325 8 -19 12 -26 14 -15 5 11 -9
39 -28 63 -42 55 -32 88 -30 318 27 251 61 305 84 343 143 l21 32 0 -33 c0
-41 -32 -75 -96 -102 -52 -23 -335 -94 -441 -111 -84 -14 -103 -10 -167 33
-31 20 -61 32 -80 31 -48 -2 -273 -94 -591 -244 -38 -18 -117 -50 -175 -70
-127 -46 -119 -49 21 -9 109 31 149 45 420 154 195 77 223 81 294 34 89 -60
91 -61 148 -48 40 8 59 19 82 46 29 33 37 36 205 73 189 42 287 72 336 102 17
10 34 19 37 19 8 0 38 -140 32 -150 -3 -5 -31 -14 -63 -21 -69 -16 -97 -41
-105 -96 -4 -23 -17 -53 -30 -67 -21 -24 -32 -26 -202 -42 -120 -10 -188 -21
-204 -31 -13 -9 -76 -21 -145 -29 -199 -23 -321 -43 -505 -85 -95 -21 -180
-39 -188 -39 -8 0 -42 18 -75 40 -34 22 -70 40 -80 40 -9 0 -56 -9 -103 -20
-66 -15 -105 -32 -164 -70 -70 -45 -85 -51 -153 -56 -71 -6 -76 -5 -101 20
-25 24 -32 26 -121 26 -65 0 -109 -5 -136 -16 -35 -14 -79 -16 -323 -11 -299
5 -388 15 -555 63 -159 46 -205 83 -246 194 -10 25 -25 51 -36 57 -24 16 -188
63 -215 63 -11 -1 22 -12 73 -26 133 -35 145 -43 171 -112 42 -113 100 -156
278 -207 154 -43 262 -56 533 -62 l256 -6 -15 -58 c-14 -55 -18 -59 -49 -65
-37 -7 -438 11 -597 27 -233 23 -432 70 -574 135 -75 35 -143 93 -154 133 -4
18 -1 21 26 21 18 0 75 -10 127 -21 160 -35 158 -35 139 -13 -9 11 -20 35 -24
54 -11 60 -27 90 -54 105 -37 18 -142 45 -180 45 -33 0 -37 11 -25 58 8 29 46
29 167 1 143 -34 153 -40 189 -115 17 -36 43 -78 58 -94 63 -67 282 -96 663
-87 247 6 351 17 607 63 310 56 485 117 811 280 125 62 286 138 359 169 172
72 564 215 590 215 12 0 34 -10 50 -21 23 -17 36 -20 66 -14 77 14 142 62 160
118 6 19 9 17 27 -23 10 -25 22 -65 25 -89z m-2178 -3 c-1 -23 -27 -48 -49
-48 -19 0 -21 4 -15 23 4 12 12 25 18 29 18 12 46 9 46 -4z m2234 -442 c6 -45
6 -74 -1 -85 -16 -25 -96 -62 -176 -82 -40 -10 -63 -18 -52 -18 35 -2 137 28
188 54 45 23 47 23 36 4 -16 -30 -100 -65 -209 -87 -94 -19 -95 -19 -102 0 -4
11 -13 16 -18 13 -6 -4 -18 -1 -27 7 -14 11 -16 10 -11 -14 5 -29 -6 -38 -48
-38 -15 0 -24 6 -24 15 0 8 -5 15 -12 15 -6 0 -20 8 -31 17 -18 17 -19 17 -12
-20 7 -34 5 -37 -16 -37 -13 0 -42 -3 -63 -7 -27 -4 -37 -3 -33 5 4 5 4 17 1
26 -5 13 -9 14 -20 5 -8 -6 -14 -18 -14 -25 0 -8 -4 -14 -10 -14 -31 0 16 82
59 105 17 8 52 15 78 15 26 0 106 7 177 14 140 15 143 17 172 83 8 18 14 43
14 55 0 25 28 47 75 59 63 15 69 10 79 -65z m-3670 -70 c59 -18 70 -29 85 -95
8 -37 7 -41 -7 -37 -59 17 -107 27 -177 37 -44 6 -83 16 -87 22 -4 7 -8 31 -8
54 0 32 4 42 18 45 25 5 112 -8 176 -26z m2997 -158 l-18 -43 -69 -7 c-157
-17 -300 -42 -496 -85 -114 -25 -215 -43 -223 -39 -9 3 -15 18 -15 37 0 18 -3
29 -7 26 -3 -4 -15 7 -25 24 -26 42 -31 33 -17 -31 6 -28 7 -55 3 -60 -13 -11
-164 -31 -176 -24 -6 4 -8 27 -6 55 3 27 2 49 -1 49 -11 0 -29 -36 -41 -79 -7
-27 -16 -41 -28 -41 -9 -1 -71 -7 -137 -15 -117 -13 -120 -13 -137 7 -21 23
-24 58 -5 58 77 1 137 21 205 68 59 41 88 53 166 71 104 24 110 23 185 -33 45
-34 78 -33 243 3 194 43 451 86 605 100 8 1 7 -12 -6 -41z m-1461 -140 c21
-35 25 -74 11 -96 -5 -9 -53 -17 -150 -24 -134 -9 -143 -9 -156 9 -31 40 -11
93 47 122 35 17 61 21 136 21 l92 0 20 -32z"/>
<path d="M3078 3953 c7 -3 16 -2 19 1 4 3 -2 6 -13 5 -11 0 -14 -3 -6 -6z"/>
<path d="M3184 3924 c38 -13 71 -22 73 -20 5 5 -116 46 -131 45 -6 0 20 -11
58 -25z"/>
<path d="M3365 3500 c27 -12 43 -12 25 0 -8 5 -22 9 -30 9 -10 0 -8 -3 5 -9z"/>
<path d="M3485 3448 c103 -52 135 -81 137 -127 l1 -36 4 33 c3 19 -2 43 -11
56 -13 21 -182 117 -203 116 -4 -1 28 -19 72 -42z"/>
<path d="M3192 3434 c-26 -18 -82 -91 -82 -107 0 -6 14 11 31 37 48 72 102 92
172 62 33 -13 97 -78 97 -98 0 -6 3 -9 6 -5 13 12 -39 78 -80 102 -50 29 -110
33 -144 9z"/>
<path d="M3270 3374 c0 -3 11 -15 25 -26 40 -31 31 -108 -14 -108 -11 0 -10 4
4 20 15 16 16 25 7 52 -10 33 -10 33 -11 6 -1 -40 -33 -36 -69 8 l-30 36 -6
-29 c-9 -41 8 -80 46 -103 40 -24 85 -26 116 -4 35 24 26 91 -19 133 -22 20
-49 28 -49 15z"/>
<path d="M3421 3294 c0 -11 3 -14 6 -6 3 7 2 16 -1 19 -3 4 -6 -2 -5 -13z"/>
<path d="M3611 3264 c0 -11 3 -14 6 -6 3 7 2 16 -1 19 -3 4 -6 -2 -5 -13z"/>
<path d="M3101 3234 c0 -11 3 -14 6 -6 3 7 2 16 -1 19 -3 4 -6 -2 -5 -13z"/>
<path d="M3402 3212 l-23 -37 26 28 c14 15 25 32 25 38 0 14 -3 11 -28 -29z"/>
<path d="M3137 3199 c7 -7 15 -10 18 -7 3 3 -2 9 -12 12 -14 6 -15 5 -6 -5z"/>
<path d="M3585 3192 c-3 -11 -17 -38 -32 -58 -14 -22 -18 -32 -8 -24 19 16 59
90 52 97 -3 2 -8 -4 -12 -15z"/>
<path d="M3050 3159 c0 -5 5 -7 10 -4 6 3 10 8 10 11 0 2 -4 4 -10 4 -5 0 -10
-5 -10 -11z"/>
<path d="M3263 3153 c9 -2 25 -2 35 0 9 3 1 5 -18 5 -19 0 -27 -2 -17 -5z"/>
<path d="M3358 3093 c6 -2 18 -2 25 0 6 3 1 5 -13 5 -14 0 -19 -2 -12 -5z"/>
<path d="M3460 3090 l-45 -7 40 -1 c22 -1 47 3 55 8 8 5 11 9 5 8 -5 0 -30 -4
-55 -8z"/>
<path d="M3305 3064 c-23 -36 -15 -37 13 -3 13 16 19 29 14 29 -5 0 -17 -12
-27 -26z"/>
<path d="M3276 2989 c-8 -42 0 -50 9 -9 4 17 5 34 2 36 -2 3 -7 -10 -11 -27z"/>
<path d="M3262 2920 c0 -14 2 -19 5 -12 2 6 2 18 0 25 -3 6 -5 1 -5 -13z"/>
<path d="M2970 2915 c0 -14 76 -106 91 -110 20 -7 123 24 114 34 -4 3 -25 11
-48 18 -30 9 -45 9 -54 1 -11 -9 -22 -3 -51 25 -35 34 -52 45 -52 32z"/>
<path d="M2848 2893 c23 -2 59 -2 80 0 20 2 1 4 -43 4 -44 0 -61 -2 -37 -4z"/>
<path d="M3233 2849 c-12 -21 -17 -37 -12 -33 11 6 42 64 37 69 -2 2 -13 -14
-25 -36z"/>
<path d="M3155 2790 c-3 -6 1 -7 9 -4 18 7 21 14 7 14 -6 0 -13 -4 -16 -10z"/>
<path d="M2928 2723 c7 -3 16 -2 19 1 4 3 -2 6 -13 5 -11 0 -14 -3 -6 -6z"/>
<path d="M2764 2664 c-18 -14 -18 -15 4 -4 12 6 22 13 22 15 0 8 -5 6 -26 -11z"/>
<path d="M2649 2553 l-34 -38 38 34 c20 19 37 36 37 38 0 8 -8 0 -41 -34z"/>
<path d="M2589 2503 c-13 -16 -12 -17 4 -4 16 13 21 21 13 21 -2 0 -10 -8 -17
-17z"/>
<path d="M2545 2480 c-3 -6 1 -7 9 -4 18 7 21 14 7 14 -6 0 -13 -4 -16 -10z"/>
<path d="M2478 2449 c-21 -11 -38 -22 -38 -24 0 -5 79 32 89 41 12 11 -18 1
-51 -17z"/>
<path d="M2408 2403 c-18 -21 -31 -43 -25 -43 2 0 13 14 25 30 25 33 24 41 0
13z"/>
<path d="M1740 2340 c8 -5 26 -10 39 -10 32 0 24 6 -19 14 -25 4 -31 3 -20 -4z"/>
<path d="M1818 2323 c6 -2 18 -2 25 0 6 3 1 5 -13 5 -14 0 -19 -2 -12 -5z"/>
<path d="M1905 2300 c28 -10 57 -18 65 -18 8 0 -7 8 -35 18 -27 10 -57 18 -65
18 -8 0 8 -8 35 -18z"/>
<path d="M1998 2273 c6 -2 18 -2 25 0 6 3 1 5 -13 5 -14 0 -19 -2 -12 -5z"/>
<path d="M1658 2253 c7 -3 16 -2 19 1 4 3 -2 6 -13 5 -11 0 -14 -3 -6 -6z"/>
<path d="M1698 2243 c7 -3 16 -2 19 1 4 3 -2 6 -13 5 -11 0 -14 -3 -6 -6z"/>
<path d="M1839 2199 c30 -10 56 -17 58 -15 5 5 -86 36 -101 35 -6 0 13 -9 43
-20z"/>
<path d="M2110 2195 c-25 -13 -40 -24 -35 -24 6 0 30 11 55 24 25 13 41 24 35
24 -5 0 -30 -11 -55 -24z"/>
<path d="M1948 2163 c6 -2 18 -2 25 0 6 3 1 5 -13 5 -14 0 -19 -2 -12 -5z"/>
<path d="M2028 2163 c6 -2 18 -2 25 0 6 3 1 5 -13 5 -14 0 -19 -2 -12 -5z"/>
<path d="M4102 3395 c0 -16 2 -22 5 -12 2 9 2 23 0 30 -3 6 -5 -1 -5 -18z"/>
<path d="M4092 3340 c0 -14 2 -19 5 -12 2 6 2 18 0 25 -3 6 -5 1 -5 -13z"/>
<path d="M3710 3220 c6 -11 13 -20 16 -20 2 0 0 9 -6 20 -6 11 -13 20 -16 20
-2 0 0 -9 6 -20z"/>
<path d="M3730 3186 c0 -2 8 -10 18 -17 15 -13 16 -12 3 4 -13 16 -21 21 -21
13z"/>
<path d="M3825 3080 c38 -38 72 -70 74 -70 3 0 -26 32 -64 70 -38 39 -72 70
-74 70 -3 0 26 -31 64 -70z"/>
<path d="M3910 3006 c0 -10 75 -56 90 -55 8 0 5 4 -9 10 -13 5 -36 18 -52 30
-16 11 -29 18 -29 15z"/>
<path d="M2637 3343 c18 -2 50 -2 70 0 21 2 7 4 -32 4 -38 0 -55 -2 -38 -4z"/>
<path d="M2758 3333 c7 -3 16 -2 19 1 4 3 -2 6 -13 5 -11 0 -14 -3 -6 -6z"/>
<path d="M3620 3011 c5 -11 15 -23 21 -27 6 -3 3 5 -6 20 -20 30 -30 35 -15 7z"/>
<path d="M3680 2936 c19 -21 58 -59 85 -84 28 -26 77 -73 109 -107 33 -33 52
-49 43 -35 -9 14 -74 79 -144 144 -70 66 -112 103 -93 82z"/>
<path d="M3936 2667 c3 -10 9 -15 12 -12 3 3 0 11 -7 18 -10 9 -11 8 -5 -6z"/>
<path d="M3950 2620 c0 -11 2 -20 4 -20 2 0 6 9 9 20 3 11 1 20 -4 20 -5 0 -9
-9 -9 -20z"/>
<path d="M4090 2729 c-7 -11 -10 -23 -7 -25 2 -2 9 7 15 21 14 30 7 33 -8 4z"/>
<path d="M3955 2450 c-9 -16 -13 -30 -11 -30 3 0 12 14 21 30 9 17 13 30 11
30 -3 0 -12 -13 -21 -30z"/>
<path d="M3910 2370 c-6 -11 -8 -20 -6 -20 3 0 10 9 16 20 6 11 8 20 6 20 -3
0 -10 -9 -16 -20z"/>
<path d="M3859 2278 c-7 -13 -19 -34 -27 -48 -14 -24 -13 -24 3 -5 20 24 48
75 41 75 -3 0 -11 -10 -17 -22z"/>
<path d="M3779 2153 c-32 -39 -44 -57 -32 -50 13 8 57 67 50 67 -2 0 -10 -8
-18 -17z"/>
<path d="M3810 2390 c-19 -11 -30 -19 -25 -19 6 0 26 8 45 19 19 11 31 19 25
19 -5 0 -26 -8 -45 -19z"/>
<path d="M3595 2284 c-93 -47 -205 -96 -248 -109 -116 -37 -133 -48 -237 -154
-122 -125 -436 -376 -604 -482 -34 -21 -57 -39 -52 -39 16 0 202 128 324 223
166 128 303 249 363 318 58 67 87 84 209 124 97 31 469 213 420 204 -3 0 -81
-39 -175 -85z"/>
<path d="M2376 2232 c-2 -4 4 -8 14 -8 10 0 16 4 14 8 -3 4 -9 8 -14 8 -5 0
-11 -4 -14 -8z"/>
<path d="M2410 2206 c0 -2 8 -10 18 -17 15 -13 16 -12 3 4 -13 16 -21 21 -21
13z"/>
<path d="M2450 2150 c6 -11 13 -20 16 -20 2 0 0 9 -6 20 -6 11 -13 20 -16 20
-2 0 0 -9 6 -20z"/>
<path d="M2500 2063 c44 -78 114 -167 156 -199 42 -32 110 -42 139 -21 18 14
16 14 -23 4 -38 -10 -48 -9 -86 12 -49 25 -126 115 -176 204 -17 31 -34 57
-37 57 -3 0 10 -26 27 -57z"/>
<path d="M3156 2103 c-6 -14 -5 -15 5 -6 7 7 10 15 7 18 -3 3 -9 -2 -12 -12z"/>
<path d="M2341 1974 c0 -11 3 -14 6 -6 3 7 2 16 -1 19 -3 4 -6 -2 -5 -13z"/>
<path d="M2341 1917 c-14 -41 -47 -74 -81 -80 l-25 -4 26 -2 c35 -1 75 32 89
75 7 19 10 38 7 40 -3 3 -10 -10 -16 -29z"/>
<path d="M2077 1823 c18 -2 50 -2 70 0 21 2 7 4 -32 4 -38 0 -55 -2 -38 -4z"/>
<path d="M1968 1813 c12 -2 32 -2 45 0 12 2 2 4 -23 4 -25 0 -35 -2 -22 -4z"/>
<path d="M1893 1803 c9 -2 23 -2 30 0 6 3 -1 5 -18 5 -16 0 -22 -2 -12 -5z"/>
<path d="M1813 1793 c9 -2 25 -2 35 0 9 3 1 5 -18 5 -19 0 -27 -2 -17 -5z"/>
<path d="M875 1774 c28 -7 57 -13 65 -13 8 0 -7 7 -35 15 -27 7 -57 13 -65 13
-8 0 8 -7 35 -15z"/>
<path d="M1743 1783 c9 -2 25 -2 35 0 9 3 1 5 -18 5 -19 0 -27 -2 -17 -5z"/>
<path d="M1663 1773 c9 -2 25 -2 35 0 9 3 1 5 -18 5 -19 0 -27 -2 -17 -5z"/>
<path d="M1568 1763 c12 -2 30 -2 40 0 9 3 -1 5 -23 4 -22 0 -30 -2 -17 -4z"/>
<path d="M968 1753 c6 -2 18 -2 25 0 6 3 1 5 -13 5 -14 0 -19 -2 -12 -5z"/>
<path d="M1478 1753 c12 -2 30 -2 40 0 9 3 -1 5 -23 4 -22 0 -30 -2 -17 -4z"/>
<path d="M1023 1743 c9 -2 25 -2 35 0 9 3 1 5 -18 5 -19 0 -27 -2 -17 -5z"/>
<path d="M1363 1743 c15 -2 37 -2 50 0 12 2 0 4 -28 4 -27 0 -38 -2 -22 -4z"/>
<path d="M1173 1733 c20 -2 54 -2 75 0 20 2 3 4 -38 4 -41 0 -58 -2 -37 -4z"/>
<path d="M1570 2159 c0 -5 5 -7 10 -4 6 3 10 8 10 11 0 2 -4 4 -10 4 -5 0 -10
-5 -10 -11z"/>
<path d="M1660 2150 c0 -5 5 -10 10 -10 6 0 10 5 10 10 0 6 -4 10 -10 10 -5 0
-10 -4 -10 -10z"/>
<path d="M1846 2101 c-3 -5 1 -11 9 -15 8 -3 15 -1 15 4 0 13 -18 22 -24 11z"/>
<path d="M1670 2070 c-9 -6 -10 -10 -3 -10 6 0 15 5 18 10 8 12 4 12 -15 0z"/>
<path d="M1940 2050 c0 -5 5 -10 11 -10 5 0 7 5 4 10 -3 6 -8 10 -11 10 -2 0
-4 -4 -4 -10z"/>
<path d="M1475 2040 c3 -5 8 -10 11 -10 2 0 4 5 4 10 0 6 -5 10 -11 10 -5 0
-7 -4 -4 -10z"/>
<path d="M1395 2000 c-3 -5 -1 -10 4 -10 6 0 11 5 11 10 0 6 -2 10 -4 10 -3 0
-8 -4 -11 -10z"/>
<path d="M1870 1960 c0 -5 5 -10 11 -10 5 0 7 5 4 10 -3 6 -8 10 -11 10 -2 0
-4 -4 -4 -10z"/>
<path d="M1705 1930 c3 -5 8 -10 11 -10 2 0 4 5 4 10 0 6 -5 10 -11 10 -5 0
-7 -4 -4 -10z"/>
<path d="M1100 1915 c-7 -9 -8 -15 -2 -15 5 0 12 7 16 15 3 8 4 15 2 15 -2 0
-9 -7 -16 -15z"/>
<path d="M1195 1900 c3 -5 8 -10 11 -10 2 0 4 5 4 10 0 6 -5 10 -11 10 -5 0
-7 -4 -4 -10z"/>
<path d="M4032 1561 c-50 -9 -69 -25 -78 -67 -4 -21 0 -37 14 -54 19 -24 19
-24 118 -11 58 7 105 18 114 26 18 18 18 78 1 99 -14 17 -87 20 -169 7z m-15
-47 c6 -16 -15 -64 -28 -64 -14 0 -20 39 -9 60 13 24 28 26 37 4z"/>
</g>
</svg>
