<!-- <?xml version="1.0" standalone="no"?> -->
<svg version="1.0" xmlns="http://www.w3.org/2000/svg"
 width="92" height="92" viewBox="0 0 512.000000 412.000000"
 preserveAspectRatio="xMidYMid meet">
<metadata>
</metadata>
<g transform="translate(0.000000,412.000000) scale(0.100000,-0.100000)"
fill="#000000" stroke="none" >
<path d="M2715 3158 c-29 -17 -48 -42 -112 -146 l-56 -93 -24 25 c-29 32 -61
40 -120 32 -88 -12 -110 -30 -158 -130 -43 -87 -47 -93 -106 -126 -35 -20 -75
-52 -91 -74 -32 -45 -37 -85 -10 -87 53 -3 71 6 147 80 44 43 89 84 101 92 11
8 34 34 49 59 32 50 52 70 72 70 29 0 -27 -78 -89 -125 -75 -56 -147 -138
-185 -212 -15 -29 -31 -53 -36 -53 -4 0 -34 -25 -67 -55 -32 -30 -74 -61 -92
-69 -18 -8 -44 -25 -58 -38 -14 -13 -54 -44 -90 -67 -36 -24 -72 -53 -81 -64
-11 -13 -18 -16 -23 -8 -12 19 -40 12 -79 -20 -69 -57 -245 -110 -512 -154
-172 -28 -227 -50 -260 -102 -10 -15 -34 -43 -53 -60 l-34 -33 4 -94 c3 -82 7
-100 30 -131 55 -78 208 -168 388 -228 108 -37 148 -39 181 -10 18 15 18 14
57 -32 16 -19 90 -20 111 -1 9 7 26 17 39 20 17 6 22 3 22 -12 0 -27 -51 -32
-345 -33 -132 -1 -253 -4 -269 -8 -27 -5 -28 -7 -14 -22 24 -24 767 -32 2127
-23 1043 6 1117 8 1133 24 16 17 14 18 -29 24 -25 3 -80 6 -122 7 l-76 1 64
13 c124 27 223 67 261 105 16 16 20 34 20 83 0 87 -16 177 -38 207 -10 14 -25
50 -35 81 -9 31 -28 72 -42 90 -13 19 -36 56 -50 82 -18 34 -37 53 -60 63 -31
13 -36 21 -55 87 -11 39 -45 146 -75 237 l-54 165 94 95 c51 52 98 105 104
117 17 33 13 72 -9 108 -20 33 -30 40 -84 56 -52 15 -104 -26 -137 -110 -40
-100 -42 -101 -82 -34 -65 105 -132 153 -216 153 -42 0 -56 -5 -86 -32 -40
-35 -66 -80 -85 -151 -19 -70 -57 -107 -110 -107 -111 0 -391 111 -374 149 24
55 44 160 39 201 -13 88 -79 170 -169 211 -48 22 -63 23 -91 7z m99 -95 c80
-57 101 -118 72 -214 -24 -83 -23 -82 -99 -62 -58 15 -72 16 -114 4 -96 -27
-102 -27 -117 10 -13 29 -13 37 -1 54 8 11 38 57 65 103 28 45 56 82 61 82 14
0 11 -27 -6 -60 -9 -17 -13 -30 -11 -30 14 0 37 66 32 90 -3 19 1 34 15 48 23
25 37 21 103 -25z m-327 -149 c16 -23 6 -37 -17 -24 -10 5 -38 10 -62 10 -52
0 -78 -23 -123 -108 -20 -36 -54 -74 -114 -123 -47 -40 -87 -66 -89 -60 -6 18
17 40 89 87 60 38 70 49 102 116 37 79 59 104 103 118 39 12 96 4 111 -16z m3
-131 c0 -14 -5 -15 -37 -7 -21 6 -21 7 -6 31 16 24 17 24 30 7 7 -10 13 -24
13 -31z m1570 27 c27 -27 35 -65 18 -88 -7 -10 -52 -56 -100 -101 l-87 -82
-15 30 c-21 40 -20 55 8 99 12 20 26 47 30 58 4 12 20 40 36 63 24 32 37 41
60 41 17 0 39 -9 50 -20z m-410 -8 l22 -18 -29 -31 c-16 -17 -46 -73 -67 -126
-42 -109 -89 -161 -152 -173 -63 -12 -177 3 -273 35 -105 35 -122 45 -156 91
-13 18 -48 49 -77 69 -42 28 -63 36 -100 36 -55 0 -65 -8 -70 -55 -3 -30 1
-36 24 -44 21 -7 37 -6 63 7 l36 17 -18 27 -18 28 35 -21 c19 -11 35 -24 34
-30 -1 -12 -201 -116 -287 -150 -37 -14 -136 -72 -220 -127 -201 -134 -318
-198 -495 -269 -176 -71 -240 -88 -325 -88 -50 0 -70 5 -91 21 -31 24 -25 46
7 24 27 -19 43 -19 27 0 -16 19 -8 29 38 44 37 12 42 12 72 -10 l32 -24 17 21
c13 17 21 19 44 11 15 -5 34 -6 42 -3 17 6 20 52 5 61 -19 12 -9 23 41 45 55
23 68 18 69 -23 0 -23 28 -33 45 -16 8 8 18 36 22 64 7 42 14 53 48 77 l40 27
14 -29 c8 -17 23 -32 33 -36 33 -10 41 5 35 65 -5 51 -4 58 19 74 29 21 29 21
52 -24 24 -46 47 -58 69 -37 14 15 15 22 4 59 -12 40 -12 44 11 61 32 24 40
23 60 -12 23 -40 68 -43 68 -5 0 15 -6 38 -14 53 -14 27 -13 29 27 62 31 26
42 31 45 20 8 -24 61 -72 75 -68 19 7 20 56 3 83 -21 32 -20 43 7 66 28 24 44
24 52 0 10 -32 31 -44 54 -31 29 15 27 56 -5 85 l-27 25 39 16 c67 28 130 14
253 -54 180 -100 331 -149 438 -140 51 4 60 9 89 42 18 21 45 72 60 113 45
124 96 162 154 115z m108 -139 c29 -49 52 -95 52 -105 0 -21 -163 -174 -212
-199 -24 -12 -58 -19 -95 -19 -83 0 -124 -14 -178 -62 l-48 -42 -231 78 c-127
42 -262 92 -301 110 l-70 32 25 16 c39 24 230 128 235 128 2 0 30 -32 61 -71
38 -48 70 -77 98 -89 66 -30 212 -53 289 -47 125 11 175 59 227 222 28 86 56
135 79 135 11 0 36 -31 69 -87z m-1315 60 c18 -9 27 -18 21 -20 -11 -4 -84 24
-84 32 0 10 32 4 63 -12z m-95 -35 c7 -7 12 -39 12 -73 0 -62 -11 -85 -39 -85
-12 1 -11 5 6 19 l22 18 -25 53 c-19 40 -22 56 -13 66 14 17 22 17 37 2z m70
-56 c6 -23 6 -42 2 -42 -11 0 -20 27 -20 62 0 40 6 33 18 -20z m-138 -28 c0
-21 -99 -134 -117 -134 -13 0 41 95 81 141 18 21 36 18 36 -7z m1580 -109 c8
-5 7 -11 -2 -23 -10 -11 -10 -16 -1 -19 12 -4 -57 -73 -73 -73 -5 0 9 17 31
36 l40 36 -45 -35 c-25 -19 -45 -40 -45 -46 0 -11 -116 -111 -345 -295 -69
-55 -150 -124 -180 -152 l-55 -52 0 42 c0 27 -8 53 -24 74 l-23 33 83 102
c149 184 153 188 279 197 100 7 123 20 255 143 67 62 81 72 87 57 4 -10 12
-21 18 -25z m-1206 -75 c21 -8 26 -16 26 -44 0 -64 24 -78 270 -162 124 -42
229 -80 235 -85 6 -6 -6 -25 -32 -51 l-41 -41 -109 40 c-308 115 -415 147
-493 147 -83 1 -103 -7 -235 -93 -103 -68 -273 -153 -377 -190 -227 -79 -477
-86 -696 -19 -34 10 -60 23 -57 27 2 5 26 12 52 16 27 4 90 18 141 31 109 28
102 28 102 9 0 -8 15 -24 33 -35 46 -28 140 -26 258 5 51 14 144 39 205 55 62
16 138 41 169 55 102 45 227 128 314 209 92 85 164 136 192 136 10 0 29 -4 43
-10z m-554 -10 c0 -5 -5 -10 -11 -10 -5 0 -7 5 -4 10 3 6 8 10 11 10 2 0 4 -4
4 -10z m1790 -19 c6 -17 9 -35 5 -41 -4 -6 -72 -65 -152 -131 -79 -67 -142
-123 -140 -126 3 -3 76 43 163 101 86 58 158 105 160 104 1 -2 11 -32 22 -68
l21 -65 -34 -31 c-19 -16 -78 -53 -132 -81 -95 -50 -153 -69 -438 -146 -71
-20 -139 -38 -150 -42 -28 -9 39 51 245 219 96 79 227 186 290 239 63 53 118
97 121 97 4 0 12 -13 19 -29z m-1860 -46 c-7 -8 -18 -15 -24 -15 -6 0 -2 7 8
15 25 19 32 19 16 0z m-95 -55 c-3 -5 -11 -10 -16 -10 -6 0 -7 5 -4 10 3 6 11
10 16 10 6 0 7 -4 4 -10z m780 -195 c189 -63 295 -105 295 -115 0 -8 -212
-178 -283 -227 -20 -14 -85 -34 -172 -53 -77 -17 -180 -40 -230 -51 -155 -35
-394 -69 -563 -80 -301 -20 -884 33 -841 76 3 3 54 -2 112 -10 59 -8 172 -18
252 -22 127 -5 145 -4 145 9 0 41 -155 143 -308 204 -91 36 -118 58 -103 83 6
9 17 7 44 -12 72 -49 296 -96 458 -97 241 0 496 81 754 241 39 23 95 58 125
77 50 31 60 33 115 29 33 -3 123 -26 200 -52z m-1051 26 c3 -5 -1 -11 -9 -15
-15 -6 -29 7 -18 18 9 9 21 8 27 -3z m2337 -66 c17 -35 29 -72 27 -81 -2 -10
-44 -39 -99 -68 l-95 -50 -78 19 c-74 18 -80 19 -142 2 -102 -26 -205 -74
-254 -116 -55 -47 -50 -60 8 -21 52 34 261 110 306 110 19 0 53 -7 76 -15 23
-8 56 -15 72 -15 32 0 136 50 217 104 49 33 56 35 70 22 13 -14 13 -18 -5 -37
-23 -25 -109 -70 -179 -92 -27 -9 -133 -34 -235 -57 -102 -22 -246 -58 -320
-80 -74 -23 -188 -53 -252 -67 -65 -15 -116 -29 -113 -31 7 -7 209 38 435 97
124 32 292 75 374 94 103 25 172 48 228 76 44 23 81 41 83 41 7 0 65 -91 65
-103 0 -29 -214 -96 -503 -158 -160 -34 -201 -39 -247 -33 -102 15 -150 -1
-197 -63 -47 -62 -80 -89 -130 -108 -26 -10 -86 -35 -133 -55 -59 -26 -106
-40 -156 -44 -113 -11 -128 6 -70 77 46 58 59 85 52 113 -9 36 -46 46 -124 34
-103 -16 -109 -18 -142 -53 -41 -44 -38 -56 5 -19 37 33 65 41 159 45 45 1 61
-2 69 -15 15 -22 -28 -77 -94 -122 -45 -30 -54 -33 -80 -23 -16 6 -29 15 -29
19 0 10 44 23 96 27 20 2 56 43 46 53 -22 22 -118 -10 -207 -68 -87 -56 -89
-57 -187 -66 l-99 -9 -36 32 c-36 31 -38 31 -117 27 -68 -3 -88 -9 -121 -31
-31 -21 -51 -27 -94 -27 -48 0 -58 4 -77 27 -21 26 -23 27 -135 26 -63 0 -134
-1 -158 -2 -30 -2 -52 4 -70 17 -14 10 -43 22 -65 26 -94 18 -284 81 -274 92
3 2 36 -2 74 -10 214 -44 625 -55 824 -23 133 21 402 78 396 84 -2 3 -62 -7
-133 -21 -309 -61 -540 -77 -816 -57 -237 18 -376 45 -419 82 l-23 20 35 -6
c231 -40 518 -58 740 -45 194 11 380 39 619 91 102 22 251 53 331 69 183 35
279 60 452 116 75 24 224 66 330 94 207 55 329 106 428 179 30 22 56 40 58 41
2 0 17 -29 33 -65z m-916 -259 c-41 -17 -330 -87 -354 -86 -19 2 79 35 174 60
118 31 146 37 185 38 24 1 23 1 -5 -12z m1115 -71 c-17 -20 -129 -55 -430
-131 -234 -60 -326 -94 -345 -125 -14 -21 3 -19 52 6 27 14 112 42 188 61 183
46 475 129 522 149 36 15 39 15 55 -5 20 -24 33 -115 23 -159 -17 -79 -214
-122 -715 -155 -146 -10 -228 -12 -234 -6 -7 7 10 30 47 68 31 32 57 61 57 65
0 4 -11 7 -24 7 -26 0 -71 -34 -118 -86 -51 -57 -131 -81 -173 -50 -17 12 -13
16 45 47 44 23 74 48 100 84 52 70 91 88 178 80 57 -6 97 0 262 35 206 45 396
96 470 128 45 19 62 14 40 -13z m-1661 -443 c-81 -4 -97 11 -38 37 l44 20 28
-27 28 -27 -62 -3z m711 49 c0 -5 3 -16 6 -25 8 -21 -44 -22 -72 -2 -20 15
-17 19 31 29 33 8 35 7 35 -2z m-225 -43 c-83 -11 -98 -5 -46 20 42 19 47 20
75 4 l31 -16 -60 -8z"/>

<path d="M2555 1994 c-11 -9 -59 -35 -106 -59 -227 -115 -401 -170 -634 -200
-71 -9 -145 -19 -162 -21 -40 -6 -62 -39 -41 -60 36 -36 581 77 917 191 130
43 151 57 151 95 0 55 -79 90 -125 54z"/>

</g>
</svg>
