<!-- <?xml version="1.0" standalone="no"?> -->
<svg version="1.0" xmlns="http://www.w3.org/2000/svg"
 width="130" height="130" viewBox="0 0 512.000000 512.000000"
 preserveAspectRatio="xMidYMid meet">
<metadata>
Created by potrace 1.16, written by Peter Selinger 2001-2019
</metadata>
<g transform="translate(0.000000,512.000000) scale(0.100000,-0.100000)"
fill="#000000" stroke="none">
<path d="M3535 3834 c-41 -21 -89 -69 -111 -110 -11 -19 -30 -38 -43 -41 -21
-5 -23 -10 -18 -49 3 -26 -1 -50 -8 -61 -7 -10 -29 -69 -49 -132 -19 -62 -45
-128 -56 -146 -22 -35 -80 -79 -120 -90 -16 -5 -8 4 23 25 52 35 91 87 103
134 6 26 5 28 -16 21 -59 -19 -144 0 -192 42 -15 14 -19 10 -42 -35 -35 -69
-74 -112 -121 -133 -53 -25 -76 -24 -139 6 -51 24 -53 27 -65 81 -16 71 -71
130 -153 163 -52 21 -57 25 -52 49 2 15 1 33 -4 40 -11 16 -72 31 -129 32 -63
0 -76 -25 -68 -132 6 -75 3 -97 -29 -225 -20 -77 -40 -152 -45 -166 -9 -23 -7
-26 32 -36 100 -27 150 -32 167 -16 9 8 21 15 27 15 6 0 13 10 17 23 10 40 65
107 113 137 53 34 125 41 159 15 17 -13 14 -14 -38 -15 -70 0 -103 -12 -147
-53 -29 -28 -81 -99 -81 -111 0 -2 9 -6 20 -9 12 -3 20 0 20 7 0 29 61 106 99
126 55 28 114 25 223 -9 135 -43 208 -55 300 -48 105 7 199 51 242 114 26 38
29 49 28 119 0 50 3 73 8 63 15 -23 23 -96 15 -135 -9 -49 -82 -126 -148 -155
-46 -21 -66 -24 -187 -24 -130 1 -139 2 -242 38 -59 20 -124 37 -145 37 -61 0
-122 -37 -152 -91 l-26 -47 33 -30 c56 -53 40 -72 -75 -88 -48 -6 -90 -10 -92
-8 -2 2 2 10 8 18 9 11 37 16 89 18 82 3 100 16 59 42 -17 12 -67 19 -174 26
-82 5 -156 12 -165 15 -23 9 -103 -30 -126 -62 -11 -16 -23 -45 -27 -64 -5
-29 -13 -38 -41 -48 -106 -38 -154 -150 -104 -244 11 -21 17 -43 14 -50 -19
-33 -77 -97 -88 -97 -20 0 -47 -35 -50 -65 -2 -16 -23 -51 -50 -81 -25 -29
-64 -80 -86 -113 -47 -70 -155 -164 -325 -281 -66 -45 -131 -92 -144 -104 -29
-26 -60 -92 -61 -127 0 -15 -7 -33 -16 -40 -24 -20 -12 -127 21 -196 55 -112
168 -171 374 -195 92 -11 103 -10 260 21 125 25 169 30 187 23 17 -8 40 -6 96
10 91 25 302 107 306 119 2 5 11 9 20 9 22 0 237 118 258 141 17 18 17 21 0
56 -17 35 -17 38 0 50 26 19 68 16 109 -8 45 -27 72 -22 182 31 92 45 115 71
87 101 -9 10 -25 21 -35 24 -31 10 -22 21 39 48 93 41 130 48 276 53 132 4
142 6 222 40 74 32 84 39 84 62 0 25 1 25 17 10 15 -16 22 -14 105 30 59 31
88 53 88 65 0 19 11 22 26 7 13 -13 163 74 214 124 60 58 62 126 5 173 -18 16
-45 36 -59 46 l-25 17 30 49 c36 58 33 81 -15 109 -31 19 -33 23 -38 89 -5 75
-24 113 -62 131 -19 8 -27 24 -36 69 -31 146 -94 277 -187 387 -76 89 -103
134 -103 172 0 18 22 75 50 132 52 105 58 128 38 154 -20 25 -50 29 -83 12z
m14 -90 c23 -30 21 -48 -13 -129 l-20 -50 -8 44 c-8 46 -32 81 -55 81 -21 0
-15 19 16 51 36 36 54 36 80 3z m-1111 -256 c-13 -72 -30 -98 -22 -33 6 45 19
85 28 85 2 0 -1 -24 -6 -52z m1036 -37 c27 -47 33 -155 12 -219 -31 -93 -140
-169 -276 -192 -74 -13 -172 -10 -177 5 -8 27 18 39 95 46 101 9 187 46 241
104 55 60 68 107 52 195 -10 56 -10 74 0 86 16 20 30 14 53 -25z m172 -148
c60 -94 113 -225 128 -313 l6 -36 -67 -11 c-87 -15 -246 -94 -425 -212 -175
-115 -259 -193 -518 -482 -95 -105 -97 -107 -161 -129 -25 -9 -92 -49 -149
-90 -324 -233 -972 -531 -1154 -530 -46 0 -56 5 -111 50 -33 28 -68 53 -77 56
-25 8 -22 34 3 34 12 0 48 -26 83 -60 38 -36 71 -60 85 -60 132 0 622 215 878
386 137 91 187 139 282 275 80 112 120 161 130 154 4 -2 49 28 101 66 52 39
140 98 195 133 55 35 201 127 325 206 227 144 367 224 469 268 55 23 56 23 16
18 -62 -8 -261 -113 -465 -247 -102 -66 -205 -132 -230 -147 -95 -55 -239
-154 -323 -221 -48 -39 -87 -68 -87 -65 0 17 230 259 274 288 50 33 134 72
207 95 20 6 46 23 59 36 20 22 21 27 10 54 -33 81 -286 179 -403 157 -53 -10
-115 -71 -282 -281 -280 -350 -328 -397 -500 -487 -70 -37 -88 -42 -147 -43
-52 0 -72 4 -95 21 -34 26 -39 43 -18 69 8 11 15 16 14 10 -7 -53 37 -79 121
-73 63 5 154 52 264 137 59 46 235 249 378 436 165 216 215 255 324 255 62 0
208 -30 359 -74 143 -42 171 -38 333 44 150 76 178 96 188 137 10 37 -9 122
-40 183 -14 27 -23 50 -21 50 2 0 21 -26 41 -57z m-1000 -195 c7 -11 -29 -48
-47 -48 -16 0 -22 30 -9 45 15 18 46 20 56 3z m-505 -134 c-11 -14 -31 -58
-43 -96 -14 -44 -29 -73 -40 -77 -17 -6 -42 -44 -85 -128 -21 -40 -16 -51 73
-157 55 -65 63 -79 54 -96 -14 -26 -36 -25 -50 1 -14 26 -6 36 15 19 9 -7 19
-9 23 -5 4 4 -2 12 -13 19 -69 39 -165 185 -165 252 0 42 37 94 85 121 37 20
41 21 46 5 5 -12 9 -4 14 23 12 72 26 104 52 125 39 30 60 26 34 -6z m197 -79
c84 -78 95 -101 66 -130 -14 -13 -34 -16 -105 -13 -83 3 -88 4 -83 23 4 11 7
21 8 22 1 1 35 3 76 4 59 2 75 -1 75 -12 0 -7 -13 -17 -30 -20 -24 -5 -26 -7
-7 -8 30 -1 62 16 62 34 0 7 -41 48 -90 90 -50 42 -95 85 -101 96 -10 19 -9
20 18 6 15 -9 65 -50 111 -92z m4 97 c14 -6 15 -10 4 -31 l-13 -23 -34 31 -34
30 30 0 c17 0 38 -3 47 -7z m-143 -31 c13 -8 3 -68 -35 -212 -2 -9 14 -42 36
-75 22 -32 40 -64 40 -70 0 -22 -41 -47 -87 -55 -27 -4 -61 -11 -78 -15 -30
-7 -30 -7 -11 14 11 13 36 23 65 27 76 10 91 15 91 29 0 7 -28 43 -61 80 l-61
67 17 67 c19 76 50 152 62 152 4 0 14 -4 22 -9z m677 -22 c95 -29 204 -83 234
-114 31 -33 18 -61 -26 -58 -16 1 -68 5 -115 9 -127 10 -148 -2 -344 -200
-312 -314 -534 -516 -646 -586 -197 -122 -443 -239 -603 -285 -118 -35 -236
-15 -236 40 0 24 49 91 50 68 0 -7 14 -20 32 -29 77 -40 248 8 515 146 139 72
315 179 328 199 2 5 -68 -32 -158 -82 -305 -170 -494 -248 -604 -251 -44 -1
-67 3 -78 14 -21 22 -12 31 130 135 66 49 149 114 185 146 l66 57 24 -19 c69
-52 213 -45 332 18 121 63 190 132 410 408 284 357 278 350 323 379 48 32 90
33 181 5z m948 -104 c8 -22 -8 -56 -41 -88 -16 -15 -128 -76 -249 -136 -120
-60 -263 -137 -317 -171 -54 -34 -101 -60 -103 -57 -9 8 164 175 260 251 159
126 227 169 315 201 51 19 127 19 135 0z m64 -58 c5 -60 -9 -96 -55 -139 -27
-26 -539 -325 -703 -411 -41 -21 -86 -46 -98 -54 -13 -8 -26 -12 -29 -10 -2 3
62 52 144 110 81 58 159 118 173 133 l25 28 -50 -29 c-92 -52 -245 -154 -344
-229 -117 -89 -165 -116 -207 -116 -85 0 -138 -20 -258 -99 -143 -93 -305
-186 -473 -270 -117 -58 -122 -62 -129 -97 -4 -21 -21 -51 -43 -73 -29 -31
-51 -42 -118 -60 -127 -34 -240 -51 -333 -52 -92 -1 -125 7 -154 39 l-18 21
53 -21 c46 -17 68 -19 144 -14 89 6 264 43 328 70 22 9 50 36 78 77 43 62 49
66 199 144 184 96 353 196 458 272 106 75 140 91 222 103 86 12 101 20 226
113 196 145 340 228 694 400 198 96 230 122 238 192 6 61 24 45 30 -28z
m-1795 -56 c17 -16 43 -39 57 -51 22 -19 22 -21 5 -17 -11 3 -46 16 -77 30
-55 23 -57 24 -42 45 8 12 17 22 20 22 2 0 19 -13 37 -29z m-103 -221 c0 -7
-132 -51 -137 -46 -2 2 15 27 38 56 l41 52 29 -28 c16 -15 29 -30 29 -34z
m1988 -52 c2 -11 -15 -30 -45 -52 -62 -46 -553 -293 -599 -302 -24 -4 -50 0
-89 16 -70 28 -102 23 -218 -37 -86 -45 -406 -261 -457 -309 -14 -13 -61 -44
-105 -69 -219 -126 -591 -277 -529 -215 5 5 65 32 134 60 240 99 373 178 803
479 172 121 292 191 325 191 13 0 46 -10 73 -22 l50 -21 53 22 c72 30 369 186
431 227 28 18 64 44 80 57 29 25 31 25 60 8 16 -9 31 -24 33 -33z m-2090 -44
c31 -20 63 -43 70 -52 11 -14 12 -14 12 3 0 14 3 16 11 8 16 -16 4 -43 -18
-43 -22 0 -158 64 -167 78 -9 15 4 42 21 42 7 0 40 -16 71 -36z m2142 1 c0
-41 -91 -100 -375 -242 -244 -122 -268 -131 -416 -149 -207 -25 -326 -79 -368
-168 -28 -57 -72 -76 -176 -76 -41 0 -75 3 -74 8 0 4 28 25 62 47 34 22 108
72 164 111 114 80 261 159 313 169 27 5 49 0 94 -21 54 -25 63 -26 109 -15 54
12 501 232 584 288 31 21 56 45 59 59 7 29 24 22 24 -11z m-2180 -90 c83 -42
92 -67 33 -91 -76 -32 -163 -12 -163 38 0 17 46 88 56 88 3 0 36 -16 74 -35z
m718 -647 c-8 -28 -266 -143 -503 -225 -203 -69 -475 -130 -475 -105 0 6 26
16 58 22 271 55 532 141 757 250 144 70 169 79 163 58z"/>
<path d="M2737 2869 c-15 -11 -84 -93 -154 -182 -170 -217 -210 -262 -255
-293 -46 -33 -43 -45 5 -16 61 38 209 210 420 488 23 29 18 30 -16 3z"/>
<path d="M2110 2176 c0 -2 8 -10 18 -17 15 -13 16 -12 3 4 -13 16 -21 21 -21
13z"/>
<path d="M2114 2118 l-19 -23 23 19 c21 18 27 26 19 26 -2 0 -12 -10 -23 -22z"/>
<path d="M2069 2083 c-13 -16 -12 -17 4 -4 9 7 17 15 17 17 0 8 -8 3 -21 -13z"/>
<path d="M2029 2053 c-13 -16 -12 -17 4 -4 9 7 17 15 17 17 0 8 -8 3 -21 -13z"/>
<path d="M1804 1914 c-18 -14 -18 -15 4 -4 12 6 22 13 22 15 0 8 -5 6 -26 -11z"/>
</g>
</svg>
